# xmcd
# 
# Track frame offsets:
#     150
#     16548
#     30888
#     44700
#     53790
#     66400
#     85030
#     97603
#     126150
#     145198
#     164578
#     178170
#     198480
#     210458
#     233970
#     253680
#     266233
#     283778
# 
# Disc length: 4078
# 
# Revision: 4
# Processed by: cddbd v1.5.2PL0 Copyright (c) Steve Scherf et al.
# Submitted via: BonkEnc v1.0.15
# 
DISCID=000fec12
DTITLE=Tadeusz Nalepa - Bluesbreakout 1971 - 1972
DYEAR=1991
DGENRE=Blues
TTITLE0=Ona poszla inna droga
TTITLE1=Kiedy bylem malym chlopcem
TTITLE2=Oni zaraz przyjda tu
TTITLE3=Przyszla do mnie bieda
TTITLE4=Pomaluj moje sny
TTITLE5=Usta me ogrzej
TTITLE6=Gdybym byl wichrem
TTITLE7=Co stalo sie kwiatom
TTITLE8=Dzisiejszej nocy
TTITLE9=Daje ci prog
TTITLE10=Takie moje miasto jest
TTITLE11=Noca puka ktos
TTITLE12=Powiedzmy to
TTITLE13=Rzeka dziecinstwa
TTITLE14=Jest gdzies taki dom
TTITLE15=Sliska dzisiaj droga
TTITLE16=Zaprowadzic ciebie musze tam
TTITLE17=Karate
EXTD=
EXTT0=
EXTT1=
EXTT2=
EXTT3=
EXTT4=
EXTT5=
EXTT6=
EXTT7=
EXTT8=
EXTT9=
EXTT10=
EXTT11=
EXTT12=
EXTT13=
EXTT14=
EXTT15=
EXTT16=
EXTT17=
PLAYORDER=
